<?xml version="1.0"?><svg width="533.3333333333333" height="533.3333333333333" xmlns="http://www.w3.org/2000/svg">
 <title>blue balloon</title>

 <g>
  <title>Layer 1</title>
  <path fill="#ffff00" fill-rule="evenodd" stroke-width="1pt" id="path1044" d="m381.25,185.075989a146.875,176.325974 0 1 0 -293.75,0a146.875,176.325974 0 1 0 293.75,0l-146.875,0l146.875,0z"/>
  <path fill="#ffff00" fill-rule="evenodd" stroke-width="1pt" id="path1046" d="m227.5,360.751312c0,0.650665 0,7.157166 0,8.458466c0,1.3013 3.125,-3.253265 -3.125,5.20517c-6.25,8.458466 -11.875,7.157166 -6.875,10.4104c5,3.253265 6.25,0.650665 10,0c3.75,-0.650635 1.875,2.6026 6.25,3.253265c4.375,0.650635 5.625,0.650635 8.75,-1.3013c3.125,-1.951965 -1.25,-3.9039 5.625,-1.951965c6.875,1.951965 8.125,5.855835 10.625,3.9039c2.5,-1.951935 -1.875,0 -1.875,-4.554535c0,-4.554565 -2.5,-9.1091 -3.75,-9.759766c-1.25,-0.650635 -6.25,-1.3013 -6.25,-7.157135c0,-5.855835 -1.25,-7.157135 -1.25,-7.157135c0,0 -15,1.951935 -18.125,0.650635z"/>
  <path fill="none" fill-rule="evenodd" stroke="black" stroke-width="3.125" id="path1047" d="m246.25,365l-18.75,0l20,6.25l-21.25,-2.5c0,0 -11.25,22.5 1.25,45c12.5,22.5 16.25,16.25 12.5,37.5c-3.75,21.25 -13.75,32.5 -11.25,37.5"/>
  <path transform="rotate(11.0879, 144.098, 96.5977)" fill="#ffffff" fill-rule="evenodd" stroke-width="1pt" id="path1053" d="m137.5,63.75c0,0 -13.75,31.25 -13.75,47.5c0,16.25 -1.25,18.75 0,18.75c1.25,0 26.25,0 26.25,0c0,0 0,-35 5,-46.25c5,-11.25 10,-20 10,-20c0,0 -27.5,-1.25 -27.5,0z"/>
  <path transform="rotate(8.3914, 123.799, 151.666)" fill="#ffffff" fill-rule="evenodd" stroke-width="1pt" id="path1055" d="m113.025902,137.187973c-2.850197,0 -1.688644,9.333588 -1.688644,16.461975c0.712822,7.128387 0.883476,12.599915 2.138405,12.599915c1.254936,0 25.640793,-2.499985 22.789597,-0.625107c-2.137405,-9.374817 -2.850235,-8.47818 -2.106308,-14.662979c0.742935,-6.810349 1.486862,-13.773804 1.486862,-13.773804c0,0 -23.331726,-0.54834 -22.619911,0z"/>
 </g>
</svg>
